<svg width="375" height="527" viewBox="0 0 375 527" fill="none" xmlns="http://www.w3.org/2000/svg">
  <rect width="375" height="527" fill="url(#paint0_linear)" />
  <path d="M264.377 68.5165L263.68 67.8986L262.881 67.4201C254.6 62.4626 249.534 57.0576 246.61 51.7005C243.708 46.3834 242.606 40.5508 243.123 34.1746C244.187 21.037 252.167 5.68204 265.383 -9.49586C278.429 -24.4792 295.694 -38.2603 313.394 -48.2528C331.281 -58.3508 348.576 -64 361.744 -64C391.606 -64 429.1 -56.6021 458.809 -42.297C489.052 -27.7342 507.744 -7.90729 507.744 15.5C507.744 43.5135 496.829 109.055 478.003 167.753C468.608 197.046 457.463 223.918 445.15 243.261C432.349 263.369 420.451 272 410.5 272C403.53 272 399.343 271.014 396.648 269.725C394.178 268.545 392.308 266.804 390.523 263.844C388.579 260.619 386.887 256.206 384.891 249.826C384.186 247.574 383.388 244.881 382.515 241.935C381.163 237.372 379.63 232.2 377.984 227.11C366.314 191.028 342.756 137.989 264.377 68.5165Z" stroke="#74C866" stroke-width="20" />
  <path d="M71.1673 271.18C78.8125 285.058 80.4699 296.157 79.1021 304.871C77.6365 314.209 72.474 322.238 64.5355 329.024C48.2288 342.962 22.0038 350 3 350C-13.0226 350 -29.1442 338.855 -41.8657 320.849C-54.4566 303.027 -62 280.754 -62 263C-62 244.888 -54.226 215.745 -41.1896 191.05C-34.721 178.796 -27.2588 168.228 -19.3672 160.857C-11.4339 153.447 -3.89342 150 3 150C6.00047 150 7.37522 150.801 8.2835 151.633C9.46835 152.719 10.841 154.81 12.1363 158.795C13.4213 162.747 14.3668 167.71 15.2653 173.789C15.6703 176.528 16.0505 179.38 16.4525 182.396C16.4915 182.688 16.5306 182.981 16.57 183.276C17.0121 186.59 17.4818 190.075 18.0215 193.627C20.1604 207.705 23.5195 223.837 31.7984 238.222C39.7837 252.097 52.112 263.952 71.1673 271.18Z" stroke="#74C866" stroke-width="20" />
  <defs>
    <linearGradient id="paint0_linear" x1="187.5" y1="1.73487e-08" x2="186.682" y2="527" gradientUnits="userSpaceOnUse">
      <stop stop-color="#80F16E" />
      <stop offset="1" stop-color="#C4C4C4" stop-opacity="0" />
    </linearGradient>
  </defs>
</svg>